<?xml version="1.0" encoding="UTF-8" standalone="no"?><svg xmlns="http://www.w3.org/2000/svg" xmlns:xlink="http://www.w3.org/1999/xlink" contentScriptType="application/ecmascript" contentStyleType="text/css" height="505px" preserveAspectRatio="none" style="width:2589px;height:505px;" version="1.1" viewBox="0 0 2589 505" width="2589px" zoomAndPan="magnify"><defs><filter height="300%" id="fj15yi9" width="300%" x="-1" y="-1"><feGaussianBlur result="blurOut" stdDeviation="2.0"/><feColorMatrix in="blurOut" result="blurOut2" type="matrix" values="0 0 0 0 0 0 0 0 0 0 0 0 0 0 0 0 0 0 .4 0"/><feOffset dx="4.0" dy="4.0" in="blurOut2" result="blurOut3"/><feBlend in="SourceGraphic" in2="blurOut3" mode="normal"/></filter></defs><g><!--class ecrm:E35_Title--><rect fill="#FEFECE" filter="url(#fj15yi9)" height="47.1016" style="stroke: #A80036; stroke-width: 1.5;" width="177" x="58.1807" y="325"/><text fill="#000000" font-family="sans-serif" font-size="14" lengthAdjust="spacingAndGlyphs" textLength="103" x="95.1807" y="342.9951">ecrm:E35_Title</text><line style="stroke: #A80036; stroke-width: 1.5;" x1="59.1807" x2="234.1807" y1="351.2969" y2="351.2969"/><text fill="#000000" font-family="sans-serif" font-size="11" lengthAdjust="spacingAndGlyphs" textLength="165" x="64.1807" y="365.5073">rdfs:label  : xsd:string  [1..1]</text><!--class ecrm:E42_Identifier--><rect fill="#FEFECE" filter="url(#fj15yi9)" height="47.1016" style="stroke: #A80036; stroke-width: 1.5;" width="177" x="438.1807" y="325"/><text fill="#000000" font-family="sans-serif" font-size="14" lengthAdjust="spacingAndGlyphs" textLength="133" x="460.1807" y="342.9951">ecrm:E42_Identifier</text><line style="stroke: #A80036; stroke-width: 1.5;" x1="439.1807" x2="614.1807" y1="351.2969" y2="351.2969"/><text fill="#000000" font-family="sans-serif" font-size="11" lengthAdjust="spacingAndGlyphs" textLength="165" x="444.1807" y="365.5073">rdfs:label  : xsd:string  [1..1]</text><!--class ecrm:E55_Type--><rect fill="#FEFECE" filter="url(#fj15yi9)" height="47.1016" style="stroke: #A80036; stroke-width: 1.5;" width="177" x="438.1807" y="449"/><text fill="#000000" font-family="sans-serif" font-size="14" lengthAdjust="spacingAndGlyphs" textLength="108" x="472.6807" y="466.9951">ecrm:E55_Type</text><line style="stroke: #A80036; stroke-width: 1.5;" x1="439.1807" x2="614.1807" y1="475.2969" y2="475.2969"/><text fill="#000000" font-family="sans-serif" font-size="11" lengthAdjust="spacingAndGlyphs" textLength="165" x="444.1807" y="489.5073">rdfs:label  : xsd:string  [1..1]</text><!--class ecrm:E52_Time-Span--><rect fill="#FEFECE" filter="url(#fj15yi9)" height="47.1016" style="stroke: #A80036; stroke-width: 1.5;" width="229" x="343.1807" y="156"/><text fill="#000000" font-family="sans-serif" font-size="14" lengthAdjust="spacingAndGlyphs" textLength="148" x="383.6807" y="173.9951">ecrm:E52_Time-Span</text><line style="stroke: #A80036; stroke-width: 1.5;" x1="344.1807" x2="571.1807" y1="182.2969" y2="182.2969"/><text fill="#000000" font-family="sans-serif" font-size="11" lengthAdjust="spacingAndGlyphs" textLength="217" x="349.1807" y="196.5073">ecrm:P82_at_some_time_within  [1..1]</text><!--class ecrm:E56_Language--><rect fill="#FEFECE" filter="url(#fj15yi9)" height="47.1016" style="stroke: #A80036; stroke-width: 1.5;" width="148" x="651.6807" y="325"/><text fill="#000000" font-family="sans-serif" font-size="14" lengthAdjust="spacingAndGlyphs" textLength="142" x="654.6807" y="342.9951">ecrm:E56_Language</text><line style="stroke: #A80036; stroke-width: 1.5;" x1="652.6807" x2="798.6807" y1="351.2969" y2="351.2969"/><text fill="#000000" font-family="sans-serif" font-size="11" lengthAdjust="spacingAndGlyphs" textLength="92" x="657.6807" y="365.5073">rdfs:label  [1..1]</text><!--class ecrm:E7_Activity--><rect fill="#FEFECE" filter="url(#fj15yi9)" height="59.9063" style="stroke: #A80036; stroke-width: 1.5;" width="193" x="607.1807" y="149.5"/><text fill="#000000" font-family="sans-serif" font-size="14" lengthAdjust="spacingAndGlyphs" textLength="112" x="647.6807" y="167.4951">ecrm:E7_Activity</text><line style="stroke: #A80036; stroke-width: 1.5;" x1="608.1807" x2="799.1807" y1="175.7969" y2="175.7969"/><text fill="#000000" font-family="sans-serif" font-size="11" lengthAdjust="spacingAndGlyphs" textLength="181" x="613.1807" y="190.0073">ecrm:P14_carried_out_by  [0..1]</text><text fill="#000000" font-family="sans-serif" font-size="11" lengthAdjust="spacingAndGlyphs" textLength="167" x="613.1807" y="202.812">mus:U31_had_function  [1..1]</text><!--class efrbroo:F24_Publication_Expression--><rect fill="#FEFECE" filter="url(#fj15yi9)" height="136.7344" style="stroke: #A80036; stroke-width: 1.5;" width="254" x="835.6807" y="111"/><text fill="#000000" font-family="sans-serif" font-size="14" lengthAdjust="spacingAndGlyphs" textLength="246" x="839.6807" y="128.9951">efrbroo:F24_Publication_Expression</text><line style="stroke: #A80036; stroke-width: 1.5;" x1="836.6807" x2="1088.6807" y1="137.2969" y2="137.2969"/><text fill="#000000" font-family="sans-serif" font-size="11" lengthAdjust="spacingAndGlyphs" textLength="153" x="841.6807" y="151.5073">ecrm:P129_is_about  [0..1]</text><text fill="#000000" font-family="sans-serif" font-size="11" lengthAdjust="spacingAndGlyphs" textLength="195" x="841.6807" y="164.312">ecrm:P148_has_component  [0..1]</text><text fill="#000000" font-family="sans-serif" font-size="11" lengthAdjust="spacingAndGlyphs" textLength="216" x="841.6807" y="177.1167">ecrm:P3_has_note  : xsd:string  [0..1]</text><text fill="#000000" font-family="sans-serif" font-size="11" lengthAdjust="spacingAndGlyphs" textLength="208" x="841.6807" y="189.9214">efrbroo:F30_Publication_Event  [0..1]</text><text fill="#000000" font-family="sans-serif" font-size="11" lengthAdjust="spacingAndGlyphs" textLength="155" x="841.6807" y="202.7261">mus:U12_has_genre  [0..1]</text><text fill="#000000" font-family="sans-serif" font-size="11" lengthAdjust="spacingAndGlyphs" textLength="196" x="841.6807" y="215.5308">mus:U19_is_categorized_as  [0..1]</text><text fill="#000000" font-family="sans-serif" font-size="11" lengthAdjust="spacingAndGlyphs" textLength="201" x="841.6807" y="228.3354">mus:U227_has_content_type  [0..1]</text><text fill="#000000" font-family="sans-serif" font-size="11" lengthAdjust="spacingAndGlyphs" textLength="242" x="841.6807" y="241.1401">mus:U65_has_geographical_context  [0..1]</text><!--class mus:M156_Title_Statement--><rect fill="#FEFECE" filter="url(#fj15yi9)" height="47.1016" style="stroke: #A80036; stroke-width: 1.5;" width="195" x="865.1807" y="325"/><text fill="#000000" font-family="sans-serif" font-size="14" lengthAdjust="spacingAndGlyphs" textLength="189" x="868.1807" y="342.9951">mus:M156_Title_Statement</text><line style="stroke: #A80036; stroke-width: 1.5;" x1="866.1807" x2="1059.1807" y1="351.2969" y2="351.2969"/><text fill="#000000" font-family="sans-serif" font-size="11" lengthAdjust="spacingAndGlyphs" textLength="165" x="871.1807" y="365.5073">rdfs:label  : xsd:string  [1..1]</text><!--class mus:M157_Statement_of_Responsibility--><rect fill="#FEFECE" filter="url(#fj15yi9)" height="47.1016" style="stroke: #A80036; stroke-width: 1.5;" width="281" x="1103.1807" y="325"/><text fill="#000000" font-family="sans-serif" font-size="14" lengthAdjust="spacingAndGlyphs" textLength="275" x="1106.1807" y="342.9951">mus:M157_Statement_of_Responsibility</text><line style="stroke: #A80036; stroke-width: 1.5;" x1="1104.1807" x2="1383.1807" y1="351.2969" y2="351.2969"/><text fill="#000000" font-family="sans-serif" font-size="11" lengthAdjust="spacingAndGlyphs" textLength="165" x="1109.1807" y="365.5073">rdfs:label  : xsd:string  [1..1]</text><!--class mus:M159_Edition_Statement--><rect fill="#FEFECE" filter="url(#fj15yi9)" height="47.1016" style="stroke: #A80036; stroke-width: 1.5;" width="213" x="1602.1807" y="325"/><text fill="#000000" font-family="sans-serif" font-size="14" lengthAdjust="spacingAndGlyphs" textLength="207" x="1605.1807" y="342.9951">mus:M159_Edition_Statement</text><line style="stroke: #A80036; stroke-width: 1.5;" x1="1603.1807" x2="1814.1807" y1="351.2969" y2="351.2969"/><text fill="#000000" font-family="sans-serif" font-size="11" lengthAdjust="spacingAndGlyphs" textLength="165" x="1608.1807" y="365.5073">rdfs:label  : xsd:string  [1..1]</text><!--class mus:M163_Music_Format_Statement--><rect fill="#FEFECE" filter="url(#fj15yi9)" height="47.1016" style="stroke: #A80036; stroke-width: 1.5;" width="261" x="1878.1807" y="325"/><text fill="#000000" font-family="sans-serif" font-size="14" lengthAdjust="spacingAndGlyphs" textLength="255" x="1881.1807" y="342.9951">mus:M163_Music_Format_Statement</text><line style="stroke: #A80036; stroke-width: 1.5;" x1="1879.1807" x2="2138.1807" y1="351.2969" y2="351.2969"/><text fill="#000000" font-family="sans-serif" font-size="11" lengthAdjust="spacingAndGlyphs" textLength="165" x="1884.1807" y="365.5073">rdfs:label  : xsd:string  [1..1]</text><!--class mus:M160_Publication_Statement--><rect fill="#FEFECE" filter="url(#fj15yi9)" height="47.1016" style="stroke: #A80036; stroke-width: 1.5;" width="241" x="2233.1807" y="325"/><text fill="#000000" font-family="sans-serif" font-size="14" lengthAdjust="spacingAndGlyphs" textLength="235" x="2236.1807" y="342.9951">mus:M160_Publication_Statement</text><line style="stroke: #A80036; stroke-width: 1.5;" x1="2234.1807" x2="2473.1807" y1="351.2969" y2="351.2969"/><text fill="#000000" font-family="sans-serif" font-size="11" lengthAdjust="spacingAndGlyphs" textLength="165" x="2239.1807" y="365.5073">rdfs:label  : xsd:string  [1..1]</text><!--class efrbroo:F30_Publication_Event--><rect fill="#FEFECE" filter="url(#fj15yi9)" height="26.2969" style="stroke: #A80036; stroke-width: 1.5;" width="215" x="596.1807" y="8"/><text fill="#000000" font-family="sans-serif" font-size="14" lengthAdjust="spacingAndGlyphs" textLength="209" x="599.1807" y="25.9951">efrbroo:F30_Publication_Event</text><path d="M526.6807,372.1153 C526.6807,392.542 526.6807,422.1333 526.6807,443.8978 " fill="none" style="stroke: #800000; stroke-width: 1.0;"/><polygon fill="#800000" points="526.6807,448.9726,530.6807,439.9726,526.6807,443.9726,522.6807,439.9726,526.6807,448.9726" style="stroke: #800000; stroke-width: 1.0;"/><text fill="#000000" font-family="sans-serif" font-size="13" lengthAdjust="spacingAndGlyphs" textLength="118" x="527.6807" y="415.0669">ecrm:P2_has_type</text><path d="M835.4552,242.2957 C829.5064,244.3772 823.5637,246.295 817.6807,248 C713.1617,278.2911 667.5695,221.3128 574.6807,278 C558.6444,287.7864 546.7135,305.189 538.7576,320.2547 " fill="none" style="stroke: #800000; stroke-width: 1.0;"/><polygon fill="#800000" points="536.4159,324.8442,544.0692,318.6453,538.6883,320.3904,536.9432,315.0095,536.4159,324.8442" style="stroke: #800000; stroke-width: 1.0;"/><text fill="#000000" font-family="sans-serif" font-size="13" lengthAdjust="spacingAndGlyphs" textLength="157" x="575.6807" y="291.0669">ecrm:P1_is_identified_by</text><path d="M835.3807,239.6647 C829.3981,242.4839 823.4747,245.2734 817.6807,248 C789.2563,261.376 775.2145,255.1274 753.6807,278 C742.8266,289.5289 735.9917,305.7796 731.7949,319.7737 " fill="none" style="stroke: #800000; stroke-width: 1.0;"/><polygon fill="#800000" points="730.3655,324.8144,736.6692,317.2472,731.7297,320.0041,728.9727,315.0645,730.3655,324.8144" style="stroke: #800000; stroke-width: 1.0;"/><text fill="#000000" font-family="sans-serif" font-size="13" lengthAdjust="spacingAndGlyphs" textLength="195" x="754.6807" y="291.0669">ecrm:P72_has_language [0..1]</text><path d="M835.6244,242.9301 C829.6299,244.8399 823.6312,246.5481 817.6807,248 C774.2568,258.5951 44.6919,245.8101 13.6807,278 C-7.4892,299.9746 18.3172,316.5696 52.6533,328.1211 " fill="none" style="stroke: #800000; stroke-width: 1.0;"/><polygon fill="#800000" points="57.7766,329.7888,50.4568,323.1994,53.0222,328.2411,47.9805,330.8065,57.7766,329.7888" style="stroke: #800000; stroke-width: 1.0;"/><text fill="#000000" font-family="sans-serif" font-size="13" lengthAdjust="spacingAndGlyphs" textLength="218" x="14.6807" y="291.0669">mus:U168_has_parallel_title [0..1]</text><path d="M835.5775,242.743 C829.5957,244.7035 823.6125,246.4735 817.6807,248 C610.6757,301.2712 546.8228,233.8583 337.6807,278 C291.0118,287.85 240.4733,306.9042 203.1115,322.7225 " fill="none" style="stroke: #800000; stroke-width: 1.0;"/><polygon fill="#800000" points="198.1604,324.8325,208.0081,324.9841,202.7602,322.8724,204.8719,317.6245,198.1604,324.8325" style="stroke: #800000; stroke-width: 1.0;"/><text fill="#000000" font-family="sans-serif" font-size="13" lengthAdjust="spacingAndGlyphs" textLength="208" x="338.6807" y="291.0669">mus:U68_has_variant_title [0..1]</text><path d="M959.6771,248.2098 C959.3436,263.6063 959.2566,279.8615 959.6807,295 C959.9029,302.9333 960.3102,311.5206 960.7546,319.4449 " fill="none" style="stroke: #800000; stroke-width: 1.0;"/><polygon fill="#800000" points="961.0663,324.8089,964.537,315.5919,960.776,319.8173,956.5505,316.0563,961.0663,324.8089" style="stroke: #800000; stroke-width: 1.0;"/><text fill="#000000" font-family="sans-serif" font-size="13" lengthAdjust="spacingAndGlyphs" textLength="239" x="960.6807" y="291.0669">mus:U170_has_title_statement [0..1]</text><path d="M1089.9486,212.9544 C1129.9435,228.0102 1172.1159,249.0894 1204.6807,278 C1217.4617,289.3468 1226.9267,305.9227 1233.3294,320.1511 " fill="none" style="stroke: #800000; stroke-width: 1.0;"/><polygon fill="#800000" points="1235.3838,324.8755,1235.4631,315.027,1233.39,320.2902,1228.1267,318.2171,1235.3838,324.8755" style="stroke: #800000; stroke-width: 1.0;"/><text fill="#000000" font-family="sans-serif" font-size="13" lengthAdjust="spacingAndGlyphs" textLength="423" x="1219.6807" y="291.0669">mus:U172_has_statement_of_responsibility_relating_to_title [0..1]</text><path d="M1089.91,186.595 C1262.0067,198.0571 1558.2295,224.9339 1651.6807,278 C1669.0459,287.8608 1683.1991,305.264 1693.0588,320.3115 " fill="none" style="stroke: #800000; stroke-width: 1.0;"/><polygon fill="#800000" points="1695.9797,324.8948,1694.5161,315.1553,1693.2926,320.6782,1687.7696,319.4547,1695.9797,324.8948" style="stroke: #800000; stroke-width: 1.0;"/><text fill="#000000" font-family="sans-serif" font-size="13" lengthAdjust="spacingAndGlyphs" textLength="258" x="1673.6807" y="291.0669">mus:U176_has_edition_statement [0..1]</text><path d="M1090.1039,181.5295 C1319.9646,186.9521 1793.7815,206.6929 1940.6807,278 C1960.3974,287.5708 1977.4967,305.3737 1989.6167,320.6941 " fill="none" style="stroke: #800000; stroke-width: 1.0;"/><polygon fill="#800000" points="1992.9011,324.9405,1990.5589,315.3742,1989.8421,320.9855,1984.2308,320.2687,1992.9011,324.9405" style="stroke: #800000; stroke-width: 1.0;"/><text fill="#000000" font-family="sans-serif" font-size="13" lengthAdjust="spacingAndGlyphs" textLength="303" x="1965.6807" y="291.0669">mus:U182_has_music_format_statement [0..1]</text><path d="M1089.878,184.2517 C1398.6931,196.4655 2170.6278,231.3035 2277.6807,278 C2299.1231,287.3532 2318.3844,305.3839 2332.1514,320.8687 " fill="none" style="stroke: #800000; stroke-width: 1.0;"/><polygon fill="#800000" points="2335.531,324.7439,2332.6301,315.332,2332.2446,320.9757,2326.6009,320.5902,2335.531,324.7439" style="stroke: #800000; stroke-width: 1.0;"/><text fill="#000000" font-family="sans-serif" font-size="13" lengthAdjust="spacingAndGlyphs" textLength="284" x="2304.6807" y="291.0669">mus:U184_has_publication_statement [0..1]</text><path d="M597.7513,34.0052 C556.7245,40.9487 515.9593,50.8259 500.6807,64 C475.3105,85.8757 464.8888,124.1936 460.6205,150.6606 " fill="none" style="stroke: #800000; stroke-width: 1.0;"/><polygon fill="#800000" points="459.8462,155.7876,465.1454,147.4859,460.5929,150.8437,457.2351,146.2912,459.8462,155.7876" style="stroke: #800000; stroke-width: 1.0;"/><text fill="#000000" font-family="sans-serif" font-size="13" lengthAdjust="spacingAndGlyphs" textLength="193" x="501.6807" y="77.0669">ecrm:P4_has_time-span [0..1]</text><path d="M703.6807,34.241 C703.6807,58.2101 703.6807,109.525 703.6807,144.2836 " fill="none" style="stroke: #800000; stroke-width: 1.0;"/><polygon fill="#800000" points="703.6807,149.2865,707.6807,140.2865,703.6807,144.2865,699.6807,140.2865,703.6807,149.2865" style="stroke: #800000; stroke-width: 1.0;"/><text fill="#000000" font-family="sans-serif" font-size="13" lengthAdjust="spacingAndGlyphs" textLength="169" x="704.6807" y="77.0669">ecrm:P9_consists_of [0..1]</text><path d="M781.4733,34.0176 C821.7507,41.8618 865.9351,52.5341 882.6807,64 C898.9155,75.1162 912.8621,90.6944 924.3506,106.8191 " fill="none" style="stroke: #800000; stroke-width: 1.0;"/><polygon fill="#800000" points="927.2183,110.928,925.3474,101.2585,924.3566,106.8279,918.7872,105.8372,927.2183,110.928" style="stroke: #800000; stroke-width: 1.0;"/><text fill="#000000" font-family="sans-serif" font-size="13" lengthAdjust="spacingAndGlyphs" textLength="150" x="900.6807" y="77.0669">mus:R24_created [0..1]</text></g></svg>